<svg width="27" height="27" viewBox="0 0 27 27" fill="none" xmlns="http://www.w3.org/2000/svg">
<path fill-rule="evenodd" clip-rule="evenodd" d="M10.789 17.1086C14.9391 17.1086 18.4862 17.7375 18.4862 20.2496C18.4862 22.7617 14.9627 23.4086 10.789 23.4086C6.63774 23.4086 3.09174 22.7853 3.09174 20.2721C3.09174 17.7588 6.61411 17.1086 10.789 17.1086Z" stroke="#959595" stroke-width="1.6875" stroke-linecap="round" stroke-linejoin="round"/>
<path fill-rule="evenodd" clip-rule="evenodd" d="M10.7905 13.523C8.06576 13.523 5.85626 11.3146 5.85626 8.58986C5.85626 5.86511 8.06576 3.65674 10.7905 3.65674C13.5141 3.65674 15.7237 5.86511 15.7237 8.58986C15.7338 11.3045 13.54 13.5129 10.8254 13.523H10.7905Z" stroke="#959595" stroke-width="1.6875" stroke-linecap="round" stroke-linejoin="round"/>
<path d="M18.5409 12.2424C20.342 11.9893 21.7291 10.4435 21.7325 8.57267C21.7325 6.72879 20.3881 5.19879 18.6253 4.90967" stroke="#959595" stroke-width="1.6875" stroke-linecap="round" stroke-linejoin="round"/>
<path d="M20.918 16.5746C22.6628 16.8345 23.8812 17.4465 23.8812 18.7065C23.8812 19.5739 23.3075 20.1364 22.3805 20.4885" stroke="#959595" stroke-width="1.6875" stroke-linecap="round" stroke-linejoin="round"/>
</svg>
