<svg width="17" height="17" viewBox="0 0 17 17" xmlns="http://www.w3.org/2000/svg">
<path d="M10.3987 14.3482C10.4914 14.3482 10.5821 14.3207 10.6591 14.2692C10.7362 14.2176 10.7963 14.1444 10.8317 14.0587C10.8672 13.9731 10.8765 13.8788 10.8583 13.7879C10.8402 13.697 10.7956 13.6134 10.73 13.5479L5.28341 8.10134L10.73 2.65478C10.8154 2.56637 10.8626 2.44796 10.8615 2.32506C10.8605 2.20215 10.8112 2.08459 10.7243 1.99768C10.6374 1.91077 10.5198 1.86147 10.3969 1.8604C10.274 1.85933 10.1556 1.90658 10.0672 1.99197L4.28903 7.77009C4.20116 7.85799 4.15179 7.9772 4.15179 8.1015C4.15179 8.22579 4.20116 8.345 4.28903 8.4329L10.0672 14.211C10.1107 14.2545 10.1624 14.2891 10.2193 14.3126C10.2762 14.3361 10.3372 14.3482 10.3987 14.3482Z" />
</svg>
