<svg width="13" height="13" viewBox="0 0 13 13" fill="none" xmlns="http://www.w3.org/2000/svg">
<path d="M5.13194 11.4258C5.05661 11.4258 4.98297 11.4034 4.92035 11.3616C4.85772 11.3197 4.80892 11.2602 4.78011 11.1906C4.7513 11.121 4.74378 11.0444 4.7585 10.9705C4.77322 10.8967 4.80951 10.8288 4.8628 10.7756L9.28813 6.35022L4.8628 1.92489C4.79342 1.85306 4.75503 1.75685 4.7559 1.65699C4.75677 1.55713 4.79682 1.46161 4.86744 1.39099C4.93805 1.32038 5.03358 1.28032 5.13344 1.27946C5.2333 1.27859 5.3295 1.31698 5.40133 1.38635L10.0961 6.08108C10.1675 6.1525 10.2076 6.24936 10.2076 6.35035C10.2076 6.45134 10.1675 6.54819 10.0961 6.61962L5.40133 11.3143C5.36595 11.3497 5.32395 11.3777 5.27772 11.3969C5.2315 11.416 5.18196 11.4258 5.13194 11.4258Z" fill="#8A898E"/>
</svg>
